<svg xmlns="http://www.w3.org/2000/svg" width="48" height="48"><path fill="#FFF" d="M35.98 17.659h-4.22a.95.95 0 0 0-.839.51s-1.682 3.152-2.223 4.213c-1.454 2.855-2.396 1.959-2.396.634v-4.57c0-.794-.633-1.439-1.415-1.439h-3.173a2.525 2.525 0 0 0-2.245 1.06s1.611-.265 1.611 1.941c0 .548.028 2.122.053 3.442a.951.951 0 0 1-.59.908.925.925 0 0 1-1.042-.25 28.227 28.227 0 0 1-3.204-5.924.888.888 0 0 0-.808-.525h-3.833a.648.648 0 0 0-.538.282.672.672 0 0 0-.077.61C12.205 21.799 17.219 32 22.94 32h2.41a.96.96 0 0 0 .951-.968v-1.479a.95.95 0 0 1 .564-.872.923.923 0 0 1 1.012.18l2.883 2.754c.259.247.6.385.956.385h3.786c1.826 0 1.826-1.288.83-2.285-.7-.702-3.228-3.412-3.228-3.412a1.345 1.345 0 0 1-.1-1.725 1538.62 1538.62 0 0 0 2.72-3.65c.775-1.049 2.178-3.269.255-3.269z"/></svg>