<svg xmlns="http://www.w3.org/2000/svg" width="48" height="48"><path fill="#FFF" fill-rule="evenodd" d="M17.271 17.54c0 3.828 3.016 6.92 6.724 6.92 3.718 0 6.723-3.092 6.723-6.92s-3.005-6.92-6.723-6.92c-3.708 0-6.724 3.092-6.724 6.92zm6.724 8.753a8.283 8.283 0 0 1-4.128-1.097c-.532-.315-.725-.572-1.383-.572-1.11 0-2.018.934-2.018 2.078 0 .676.318 1.272.817 1.657.09.058.192.129.295.187a12.398 12.398 0 0 0 3.458 1.47l-3.72 3.828a2.122 2.122 0 0 0 0 2.93 1.978 1.978 0 0 0 2.846 0l3.833-3.957 3.843 3.957a1.979 1.979 0 0 0 2.846 0 2.123 2.123 0 0 0 0-2.93l-3.72-3.828a12.542 12.542 0 0 0 3.459-1.47c.102-.058.204-.129.295-.187.487-.385.805-.98.805-1.657 0-1.144-.896-2.078-2.007-2.078-.658 0-.85.257-1.384.572a8.29 8.29 0 0 1-4.137 1.097zm0-5.859c-1.554 0-2.812-1.295-2.812-2.894 0-1.599 1.258-2.894 2.812-2.894 1.564 0 2.823 1.295 2.823 2.894 0 1.599-1.26 2.894-2.823 2.894z"/></svg>