<svg xmlns="http://www.w3.org/2000/svg" xmlns:xlink="http://www.w3.org/1999/xlink" width="16" height="16"><defs><path id="a" d="M4.188 14.445l.04.472a1 1 0 1 1-1.994.166l-.23-2.786a1 1 0 0 1 .925-1.08l3-.214a1 1 0 1 1 .142 1.994l-.442.032A4.955 4.955 0 0 0 8.557 14C11.537 14 14 11.254 14 7.816a1 1 0 0 1 2 0C16 12.313 12.693 16 8.557 16c-1.601 0-3.119-.558-4.369-1.555zm7.514-13.113l-.026-.21A1 1 0 0 1 13.66.878l.332 2.701a1 1 0 0 1-.894 1.117l-3 .3A1 1 0 0 1 9.9 3.005l.614-.061A5.36 5.36 0 0 0 7.475 2C4.454 2 2 4.505 2 7.606a1 1 0 1 1-2 0C0 3.41 3.342 0 7.474 0c1.537 0 3 .475 4.228 1.332z"/></defs><g fill="none" fill-rule="evenodd"><mask id="b" fill="#fff"><use xlink:href="#a"/></mask><use fill="#94B0BE" fill-rule="nonzero" xlink:href="#a"/><g fill="#0D87C8" mask="url(#b)"><path d="M-40 55H60V-45H-40z"/></g></g></svg>
