<svg xmlns="http://www.w3.org/2000/svg" width="236" height="157"><g fill="none" fill-rule="evenodd"><text font-family="Montserrat-Bold, Montserrat" font-size="32" font-weight="bold"><tspan x="0" y="149" fill="#151F6D">МОЯ</tspan> <tspan x="80.448" y="149" fill="#E00640"> РОССИЯ</tspan></text><g fill="#CCC"><path d="M106.048 20.318L106 20.14l.36.156.18-.168.252-.234.372-.347.228.257h.12l.3-.279.276-.302.528-.223.384.268-.216.559v.313l-.252.234-.396.168-.432.156h-.432l-.324.302-.516-.168-.264-.357zm-1.663-.231h-.657l-.215.23-.339.251-.246-.262-.595.197.041.393.154.164.226.24.154.164-.226.197-.308-.284-.164.175-.225-.24-.513.109-.226-.131-.102.284.164.175-.308.175v.415l.246.262-.061.306h.225l.288.306-.083.35.37.197.492.021.205.219h.37l.43-.131v-.35l-.267-.262.144-.153.215.23.38-.733.359-.382.154.164.328-.35.102-.328-.369-.131-.246.262-.307-.24-.37-.24-.37-.285.124-.284.195-.208.154.557.236.252.4.076.246-.109h.205l.205-.218-.103-.46h-.328l.082-.393V20zm.937 3.938l-.322.197.25.494.41.284.34-.457v-.37l-.25-.173zm.918.529l-.24.277.136.374.23.265-.146.385.126.145.188-.458.482-.12.419-.193.565-.386-.293-.626h-.398l-.565-.217-.262.277zm-5.407-.26l-.3-.265L100 24l.35.309.217.691H101v-.382zm-11.452 8.751l-.381.41v.278h.32l.103.267.268-.133.309-.334V33h-.392zM103.977 16.8l-.136.251.148.149.17-.149zm-1.17 10.052l-.614-.092-.193.114.355.115.452.25.193-.182zm-17.864.011l-.09.137.204.137.09-.16zm-.657-2.091l-.286.137.4.16.286.16.314-.07-.086-.296-.314.068zm-2.972-.447v-.35l.025-.625-.174-.35-.248.025-.347.425.025.375-.149.25.1.675-.298.3.025.675-.149.575-.124.575.223.125.471-.375.273-.175.62-.325.496-.05.62-.475.297-.575-.198-.5-.223-.375-.298.125-.297-.525-.224-.225-.272.325zm-2.027-3.003l-.19.222-.167.302-.147-.06.105-.383V21l-.461.141s-.273.06-.336.08l-.378.121-.147.302-.084.262-.188.222.063.261-.357.262.168.141.251-.08.21.281.021.262.189.222.483.04.063.261.335-.2.168.26.461.162.441-.201.21-.282-.168-.323-.273-.362.21-.141.084-.342-.105-.383.042-.382-.503-.262zM78.958 28l-.416.5-.542.125.5.375.5-.5zm-4.026.84l-.114.183.16.137.204-.297zm-1.818 5.941l-.273.137s.113.342.113.297c0-.046.205-.092.205-.092l-.045-.342zm-2.046-2.021l-.25.206.136.274.228-.046zm.006 3.012l-.074.25h.63l.333.206.037-.342-.37-.046zm-1.176-13.977l-.137.137.16.09.25.183.068-.228zM68.28 38.09l-.28.274.16.363.28.273.4-.333.16-.394-.36-.273zm-.79.004l-.235.344-.255.312.234.25.192-.25h.297l.277-.375-.255-.375zm-1.217-2.288l-.273.183.182.205.363-.183.455.092-.121-.206zm-1.353.966l-.113.296.182.16.204-.25zm-1.6-.702l-.235.186.085.21-.17.255.042.163.384.116.361-.186.213.023v-.232l-.34-.093.17-.21-.192-.302-.234.093zM52.583 39l-.333.205-.25.103.063.666.041.36.23.076.083.539.437.051.146-.436-.208-.436.02-.487zm-7.429-2l-.564.179-.334.508-.256.388.18.567.41.179.384.179.36-.298.435.09.231-.628-.359-.537-.026-.448zm-15.245.829l-.091.137.16.205.204-.205zm21.131-.319h-.25l-.272-.403-.158.09-.476-.447-.363-.379.136-.402.363-.111.135-.223-.249-.2.023-.537-.159-.044-.158-.402-.34-.022-.272-.38.09-.49.363-.491.43.045.137.156.158.067.068-.29.521-.157.408-.423-.272-.29.363-.224.408.157.113-.335v-.335h.521l.25.246.26-.257.056-.234.567-.112-.193-.19-.487-.167v-.178l.567-.157.589-.156.294-.29h.386v-.267l.543-.023-.294-.29.476-.022.181.178-.023-.446.227-.223-.25-.29.16-.246.271.268h.34v-.335l.499.179.249-.268.25-.29h.316l.544-.245.385.134h.567l.374-.369.441.034.204.29h.476l.227.223.408-.111h.566l.374-.369.442-.234.589-.223h.544l.317.49v.536l-.476.424-.43.402-.567.045-.68.312-.611-.223-.295.29-.702-.022h-.907l-.34.357h-.702l-.521.29.159.357-.363.133-.43-.044h-.386l-.045.245-.408-.111v.401l-.408.29-.34.246v-.38l-.272.246.068.446h-.272l-.192-.19v.547l-.198-.195-.255.25-.216.213h-.294l-.227.29-.294.49h-.476l-.385.313v.424l-.386.156-.136.447-.317.312v.558l-.158.401.203.58-.18.58.249.38.113.402-.136.134-.385.178v-.29zm20.484-18.684l-.318.037-.206.123.318.188.428-.084.254-.151zm4.776-.038l-.3.17.233.132.25.141.517-.273v-.189z"/><path d="M77.938 19l-.046.35-.277.141-.415.316v.439l.17.193-.224.254-.146.325.2.315.077.316.354.351.323-.35h.215l.323-.211.385-.14-.108-.422v-.526l.231-.228-.192-.22-.393-.447-.138-.35zm-1.628 3.04L76 22l.055.431v.275l.4.118.163.176.246-.265.136-.382-.236-.196zm-4.4 8.828l-.122.122.16.142.264-.075zm-5.929-15.094l-.188.056.15.208v.188h.264v-.358zm-.271 1.266l-.1.22-.369.1-.241.18.184.12-.085.28.156.06h.312l.249-.35.184-.26-.064-.39zm-1.524-.125L64 17.02l.356.198.644-.132v-.302h-.373z"/><path d="M64.472 17.266L64.268 17l-.155.177-.113.258v.323l.24.048.056.194.296-.08.19-.218.14-.162.078-.266h-.211zm-1.524 1.554l-.122.123v.236h.254l.094-.302zM62 17.319l-.17-.154h-.537v.33l-.293.263.17.154.586-.11.22.198.512-.11.146-.308.366.11-.195-.395-.33-.297zm1.92-2.531l-.113.226.198.198.188-.188zM63.5 15H63v.367l.531.347V16l.469-.143-.281-.388zm-1.34.863h-.263l-.057.057.216.217z"/><path d="M61.986 16.811l-.179.18.179.198.207-.02zm.882-.915v.245h.264l-.057-.282z"/><path d="M62.892 15.891v.218h.216l-.17-.17zm-.024 1.099l.094.095.17-.17z"/><path d="M62.887 15.859v.264l.226.018v-.282zm-.014-.982l.132.246.122-.123-.122-.123zm-2.6 1.555l-.273.203.473.351L61 17v-.649L60.636 16z"/><path d="M60.859 16.868l.094.264h.188v-.226zm-.393-1.776l-.153.132v.144l-.176.152-.313-.191-.26.118v.158l-.32-.197-.244.079.076.316.23-.066v.21l.244.053.221-.19.313-.113.26.066h.381l.275-.237-.26-.223.176-.152-.298-.151zm-1.879-.79h-.294L58.12 14l-.12.419.153.267.06.314.347-.21.12.21.227-.163L59 15v-.349l-.153-.267h-.14zm.375 2.571h-.16l.057.236.338.018zm.982-.062l-.17.17.132.132.32.076-.207-.208z"/><path d="M60.812 14.877v.246H61l.188-.189zm66.154-4.604l.2-.73.766-.743.852-.856.389-.39.752-.328.54-.314.5-.504.515-.516.627-.252.451-.654.853-.252.451-.479.552-.252.351-.201.401.403.577-.176.514.39.339-.34.602-.327v-.303l-.602.126-.702-.05-.452-.126.15-.453.477-.328-.401-.1V2.29l.276.025.05-.453.25-.352.352-.353.602-.226h.175l.452-.63s.426-.126.577-.277c.15-.15 0 .428 0 .428l.326.277.25.252-.276.579s.377 0 .527-.151c.15-.151 0 .302 0 .302v.529l-.577.378.452.075.276-.277.589.227v-.265l.464.466.326.504.276-.076.275-.352v.327l.176.403h-.527v.202l.427.125-.226.655-.577.05-.526.58-.276.604-.527.176-.376-.151h-.476l-.427.63.188.377v.642l-.413.416-.327-.252-.326.252h-.476l-.276-.227-.25-.15-.038.238.188.19-.226.1-.15.151.438.076v.34l.339.34.552-.152h.376l.025.479.226-.227.388.39.414.416.2.73.101.58-.401.654h-.376l-.527.226-.175.403.426-.176h.276l-.401.479.25.251.326-.126v-.478l.301-.227.54-.012.313-.315.15-.252.377.025.3-.05.552-.025v.352h.451l.126-.239h.439l.263-.264.326-.05.276.226.401-.302.188.44.364.366v.529l-.502.201-.326.705h-.526l-.15.226.589.39-.189.19.427.654.175.806v.906l.15.706.252.604.125.806.25.78.477.428v.73l.251 1.008.426.478.276.277-.426.378-.451-.227-.627.202-.326.755-.527.755.276.277-.2.705v.378l.426.655v.403l-.477-.227-.351-.353-.301.026.276.73v.478l.464.214-.464.466h-.301v.655l-.276.277.376.63.301.301.351.353.477.478.1.706.075.554.69.365.414.415h.702l-.188-.428v-.214l.238-.24.176-.377.652.655.125.579.652.453.646.145.257-.258h.414l.489.49-.201.48-.502.15.15.605.528.88.463.114.364.365.853-.1.501.402.176.454-.301.201-.426.277-.251.554.175 1.007.502.78.439.164.213.215.727.176v.302l-.552.076v.453l-.2.453.25.907.427.176.652.654.476.454.1.805.252 1.058.125.68v.503l-.276-.377h-.727l-.464-.24-.364-.365h-.501l-.452-.453-.877-.403-.828-.352-.953-.504-.276-.378-.451-.302-.502-.1-1.078-.328-.702-.378-.677-.453-.326-.604-.728-.73-.501-.529v-.529l-.351-.352-.076-.58-.426-.604-.464-.1v-.215l.213-.214.176-.377-.238-.416.225-.226.188-.19-.25-.755-.126-.805-.3-.932-.477-.63-.2-.83-.226-.781-.251-.63-.301-.931-.301-.252-.025-.504.175-.604v-.78l-.3-.302-.327-.63h-.326l-.313-.113-.288-.29-.352-.452-.526-.328v-.579l.476-.453-.163-.164-.388.39-.552.303v.528l-.15.403.3.277.44.44.413.416h.502l-.05.328-.226-.025-.239.34.314.314v.806l.25.604.05.957-.175.58-.2-.504-.452-.227v.63l-.376-.378-.25-.252-.201-.428-.702-.654.2.554-.2.604h-.678v.403l-.225.83-.276.328.025 1.108.451.302-.075.705.452.705v.756l.137.994.414.416v.453l.351.353.326-.05.289-.265.213-.214h.376l-.025.478-.401.126v.68l-.753.126.176.881-.075.378-.477.201v.529l-.175.478s-.59.139-.477.026c.113-.114-.226-.227-.226-.227v-.327l.1-.328.415-.138-.188-.19-.452.177-.476.076v.226l-.703.328-.35.428-.402.1-.326.328-.125.377.125.479.276.277-.326.352-.527-.201.163.541-.388.39-.352.328h-.3l-.301.277.2.327.15.151-.426.277h-.576l-.565.567-.363.365-.402.68-.426.428-.426.856-.075.83.4.807-.375.377-.126.806.226.58.351.352-.3.503v1.586l-.151.63v.856l.25.277v1.284l-.225.856v.705l-.376.63v.63l-.201.553.226.51h.382l.295-.295h.413l.327-.328.363-.365.251.252.3.15v.328l.24.44.3.303.264-.264v-.403l-.352-.151v-.378l.276-.302v.252l.301.226.15-.05.151.151v.781l.502-.202v-.251l.275-.378.176-.151.276.201.063-.415-.239-.24-.225-.428-.276-.503.451-.252.276-.277.552-.126h.652l.539.063.238.24s.577-.101.702-.101c.126 0 .477-.152.477-.152l.313.315-.238.24-.175.176-.15.277h.877l.1.327.376.378.464-.063.239.239.25.478.075.957.327 1.007.514.743.639.642.25.252.126.428.502.504.35.604.126.353.464.717.389.39v1.058l-.15.907.275.906-.025.932.276.73.2.806.151.73.15.982v.957l-.15.503v2.191l-.15.907.15.931-.05 1.209v.579l-.502.83-.326.706-.376.705h-.326l-.627.252-.526.302-.364-.151v-.34l-.188-.19-.188.429v.466l-.213-.214-.326-.327v.251l-.1.63.1.428-.138.49-.213.215v.654l-.477-.025-.2-.201.175-.58.301-.604v-.503l-.263-.592-.54-.541-.275-.277-.226-.58-.476-.478-.452-.15-.013-.492.314-.315.276-.277v-.503l.35-.353.402-.201.414.138.364-.365.225-.453-.4-.63.2-.528-.251-.554-.05-.58-.351-.478.1-.403-.276-.478-.125-.554-.502-.529.376-.378v-.554l-.313-.314-.364-.366-.1-.327h-.426l-.602.327-.15.504-.402.655-.451.579.2.63-.526.427-.527.303-.451.15-.126.454h-.476l-.477-.277-.35-.126v-.58l-.402-.351-.326-.328-.54-.138-.288.29-.576-.152-.477-.126-.727.1h-.677l-.276.278-.752.277-.753-.151-.313-.617-.364-.365s-.426-.252-.426-.353c0-.1-.477-.478-.477-.478l-.602-.1-.25-.605-.577-.453-.401-.403-.552-.151-.2-.53-.502-.226-.301-.302-1.003-.1h-.527l-.602.327-.752-.126-.577.201h-.627l-.853.63-.4.402-.79.466-.39.39-.275.832-.201.503.276.353.389-.315.313.315.351.352.2.806-.2.428-.15 1.083v.68l-.276.705.376.73.226.226v.706l-.527.15-.339.794-.489.49-.827.303-.928-.075-.677-.126-.502.302-.702.402-.526-.276-.477-.177-.627.277-.526.53-.377.377-.213.743-.439.44-.576.403-.803.378-.614.617-.314.314h-.802l-.728.227h-1.028l-.752.1-.677-.226-.2-.377-.352-.353h-.953l-.878-.126-.35-.227-1.154.164h-.715l-.59.592-.651.15-.627.177-.903-.075-.614-.265-.39-.39-.363-.768-.464-.466-.652-.251h-.627l-.714.188-.49-.49h-.977l-.577-.429-.289.29-.388.39-.314.642-.338.34-.1.655.313.378v.566l.439.44v.605l-.59.39-.564.567h-1.204l-.677-.176-.702.126-.501-.152-.728-.252-.401-.402-.477-.479-.576-.176-.677.277-.427-.428-.539-.24-.439.441h-.551l-.176.53h-.652l-.828.528-.501.504h-.502l-.1.528-.59.139-.413.415-.752-.025-.627.352-.327.328-.727-.126-.225-.378-.276-.503-.138-.516-.389.39-.652.252-.602-.202-.677-.176v-.604l-.526-.328-.201-.453-.426-.277-.1-.604-.352-.328-.47-.207-.307-.309h-.64l-.313.315-.627.1-.251-.251-.552.1-.3-.302-.276-.276v-.378l-.276-.327-.402.125-.275.58-.552.1-.326-.654-.176-.58-.125-.654-.426-.756v-.604l-.402-.378v-.83l-.3-1.008-.427-.428-.276-.277-.288-.617-.314-.315-.426-.176v-.453h.351l.301-.403-.125-.352h-.452l-.376.377-.527.025-.388.013-.414.416-.702.201-.602.327-.276-.402-.527.251h-.426l.15-.68.602-.277v-.352h-.501l-.451-.277-.276.277-.502-.151.163-.592-.364-.365-.501.302-.552-.15-.138-.441.314-.315v-.479l.125-.352-.2-.63-.377-.176h-.451l-.226-.453h-.627l-.501-.303-.552-.05-.3.428h-.628l-.552.151-.451-.251-.552.1h-.677l-.652-.34h-.263l-.289.29-.501.1-.477-.251h-.426l-.577-.177-.852.026-.627-.126-.452.126-.401-.353-.577-.302h-.526l-.176.554.176.378-.352.352.276.176.276.278.339.34-.314.314h-.35l-.427-.428-.652.025-.426.176.175.63-.175.453-.427.126-.501-.126-.2.53.162.364.351.353.238.239.1.428.352.352-.351.479-.326.327h-.552l-.564.038-.289-.29-.2-.409h-.257l-.27.271h-.439l-.489-.491-.094-.283-.37-.372v-.642l-.313-.315H33.2l-.477.177-.175-.378-.477-.378-.426-.226-.577.277-.526.075-.427-.126-.3-.579-.427-.378-.3.504h-.327v-.403l.301-.302-.2-.428-.251-.655-.1-.68-.377-.453-.602-.227-.175-.427-.326-.328-.602.101h-.351v-.479l-.176-.503-.614-.114-.313.315-.577.202-.502-.277h-.526l-.251.377h-1.104l-.125.277-.326.328-.05.478-.615-.113-.363-.365v-.504l.163-.491-.264-.264h-.426l-.176.403-.326.239h-.489l-.388.39-.326.327v.454l-.427.176-.451-.025-.326.327-.401.277.162.491.364.365-.15.655-.326.327.326.202.476.453.301.302-.125.655.138.856v.692l-.264.265-.25-.277-.377-.05.05.453.214.44.313.315-.25.252-.427.05h-.852s-.301.038-.54.038c-.238 0-.188-.189-.188-.189l-.376-.1-.175-.177-.452-.075v.352l-.35.151-.427.504h-.476l-.527.15-.307-.081-.257.258v.416l.263.264.15.478-.125.479-.113.44-.288.29v.176l-.251.227-.552.906v.705l.15.856-.1.655.05.806-.601.277-.402-.176-.576.201L9 87.676l-.075-.478-.276-.831-.05-.605-.402-.276v-.328l-.2-.529-.351-.453.225-.378.15-.428-.375-.403-.126-.453-.426-.05-.088-.264-.313-.315-.552-.076-.351-.352-.1-.806-.352-.327.1-.504-.425-.352-.226-.58-.376-.176-.552-.378-.176-.604-.376-.579-.125-.504-.276-.05-.2-.252-.251-.352-.326.05-.201-.604.075-1.158-.1-.857-.2-.428-.252-.377.05-.756-.3-.277L1 71.184l.15-.454-.125-.503.276-.277.3-.05.402.503.376.126.176-.378.426-.176.577-.025h.3l.377.126.075-.63-.2-.378.1-.327.301.05.276.202.3.277.226-.227.351.151.577.076.426.176.1-.453-.3-.227-.426-.1-.276-.277-.301-.101.376-.403.552-.252.476.201.426-.176.402.428.602.655.551-.554.377-.227-.1-.554.35-.352.351.05-.025-.403.928-.125.176-.429.2-.251-.426-.202v-.529l-.401-.453-.15-.579-.377-.227-.401-.453.15-.529-.15-.78-.477-.353-.551-.428-.176-.579-.376-.302-.125-.352.326-.378.25-.554v-.529l-.275-.504-.276-.428.25-.2.151-.379h.301l.226-.201.175-.68.05-.403-.2-.503-.276-.277-.376-.05-.276-.303-.226-.327-.338.29-.264-.265-.225-.378.225-.403.477-.478.326-.378.125-.453.376-.025.276.302.15.377.502.177.477-.151.125-.504.15-.554-.376-.377.251-.177-.025-.428.15-.604.276-.655.2-.554.502-.15.176-.379.476-.402v-.857l-.426-.402-.476-.126.15-.378.125-.403-.35-.352-.226-.504.075-.352.476-.479.276-.503-.125-.454.401-.1.602-.378v-.529l.25-.302.628-.025.276-.328.025-.377.526-.202.427-.579.576.025.502-.302.677.151.1-.377.226-.227.426.201.351.378.552.176.2.454.201.503.301-.302-.05-.73-.451-.403v-.856l.401-.101.125-.126-.551-.226-.326-.378 5.617-.025 1.053-.378v-.655l.176-1.662h.702l.602-.478v-.655l.451-.176v-.856l.402-.025.877-.705.427.2.928-1.736.062-.466.765-.768h1.28l.4-.705v-1.36l.803-.403 1.053-.529.727.277h.427l.35.353.431-.302-.104.528.426-.05.602.025v.403l.125.453-.276-.176-.288-.29-.263.265.125.478v.479l.426.226.326.328v.529l.364.176v.592l.414.415.2.705v.73l-.125.63.15.352.013.768.439.441-.025.554-.1.907-.44.767-.664.668h-.702l-.778.15-.677-.251-.74-.415-.463-.466v-.68l-.477-.479-.225-.529-.176-.503-.326-.554-.175-.932-.351-.15.112-.567.289-.29-.351-.352-.163.44-.238.24.1.554.013.642-.276.277.363.365-.1.554-.351.78-.614.19-.49.49-.187.894-.464.466.15.529.226.654-.364.642.514.517.552.554.627-.454.125-.63-.326-.327.05-.554v-.428l.426-.453h.426l.151 1.133.138.743.439.44.276.58.714.214.214-.214-.176-.428.426-.353.025-.88.778.125.727-.277.602.328.677-.215h.464l.289.29.426.654-.351.353v.554l.313-.39.44-.441.601-.126.501-.73v-.63l.201-.428.652-.327v-.403l.627-.378v-.63l-.1-.603h.426l.138.314.564.567.426.654v.882l-.15.453-.226.226-.376-.377-.527-.126-.802.277v.654l.2.605v.503l.577.151.552.252.627-.302v-.453l.652-.151.627.302-.1-.403.978.176.526-.1.953.125h.552l.276.504h.25v-.453l.803-.252h.427l.175.655h-.476l-.15.453-.377.126.577.528h.401l.753-.327.714.139.778.78.263-.264h.527l.664-.214.264.264-.076.353-.401.276v.428l.477.403.037-.465.213-.214.502.125v-.403l.476-.075.1-.604-.074-.73.451-.227.389-.113.464.465.2-.201.514.642.59.592.476.478.314.642.589.592.401.63.427.579v.503l.35.555.502-.302v-.529l.577-.529-.402-.126-.275-.654.1-.705-.477-.328-.263-.541.238-.24.502-.251V42l.125-.604.226-.302v-.378l-.326-.101.175-.504.276-.352.502-.176.539-.265.188-.189.426-.428.326-.73.251-.604.276-.604.476-.252.301.428h.602l.301.302h.527l.225.856-.25.252-.113.919-.715.718-.2.654.426.378-.15.856-.126.68-.502.755-.175 1.083-.276.957-.2.478.188.668.438.44-.075.403-.552.428-.1.932-.552.151-.652.655-.376.554-.35.201-.628-.126-.376.252-.414-.264-.263-.265-.376-.125v.478l.376.58.376.175.502.353.426-.025.3.428h.452s.188-.34.088-.441c-.1-.1.263-.264.263-.264h.326l.15-.151.628-.177.501-.277v-.529l.226-.226.389-.39.313-.315.15-.604-.125-.53-.05-.478.339-.34.338-.34h.527l.577-.075.162.491.239.24.3.78-.4.402.025.605v.377l.502.504.576.126v-.353l-.564-.163-.213-.214v-.303l-.05-.453.401-.126.15-.327-.15-.478.176-.403-.251-.504-.326-.302-.2-.201-.615-.215-.351-.352-.289.29-.376.176-.2-.277h-.452l-.075-.479.3-.302-.074-.805.35-.554.226-.655.502-.504-.176-.554-.15-.478.063-.516-.364-.365.401-.403.627-.63h.527l.3-.478.201-.529-.175-.428.175-.378h.402l-.126.53v.73l-.1.654-.452.453v1.083l.527.403.301.252.389-.24.388.39.427.404v-.302l-.163-.39-.289-.29-.451-.227v-.201l-.376-.378-.176-.554.527-.353.25.252.402.403.3-.277-.1-.327-.037-.29.288-.29.502.101.414-.063.338.34.652.353-.175.503.163.164.438.44h.678l.1-.402-.276-.378.025-.353-.476-.176-.351-.579-.201-.201.15-.605.226-.503-.2-.202-.126-.63.502-.452h1.178l.602.226v-.15h.978l.652-.278h.477l.25-.252-.25-.377-.301-.101-.251-.252.288-.29c.188-.188.188.19.188.19l.301-.076-.2-.227.138-.315-.213-.214.25-.352.351-.277-.35-.025-.026-.378.702.025.276-.579.69-.264.263-.265.94-.138.239-.24.677-.2.15-.177-.451-.151.25-.252.653-.151.551-.076.126-.276.451-.076-.238.453v.365l.313-.314.778.025.075-.403.502-.1.501.1-.225-.302-.301-.227-.15-.277h.551l.577-.176h.175l-.05-.428-.2-.151v-.605l.125-.402.376-.932.452-.328.4-.428.502.303.377-.05.112.516-.388.39-.326.428.796.044.157-.158h.489l.363.366-.326.327s-.025.327.126.327c.15 0 .551.177.551.177l.126-.428-.226-.227.552-.302h.501l.514-.365.289.29.388-.19.289.29.25.504.302.252.175-.202.263.265.339.34-.05.528-.502-.1.2.2.502.278.314.541-.288.29v.503l-.251.353-.238.49-.289.29-.501.605v.251l-.15.705-.377.378-.15.78-.602.152-.188.566-.414.416-.1.655-.126.453.451-.202-.1-.503.452-.277s.4-.126.627-.126c.225 0 .3-.453.3-.453l.427-.353.401-.15.238-.467-.188-.188-.3-.026.024-.201-.025-.403.376-.025h.301l.427.1.501.202.1-.302.314-.441.263.264v.504l.301.428h.351l-.35-.327.237-.24.464-.465.627-.328.953-.176.753-.227.188.29-.176.176.414.416h.777l.025-.202.076-.276.3.478.527-.201.527-.454s.552-.1.677-.1 0-.454 0-.454l-.075-.503-.376-.58.1-.578.075-.303.301.303.314-.24.263.265.401.277.1-.302.201-.051.2.227.201-.152s-.025-.465.163-.465.239-.24.239-.24l.551.428.176-.176.602.202-.201.616h.288l.289.29v.479l.476-.303.251.252v.554l-.326.101-.2.201.35.353s.276-.126.276-.252.226.226.226.226v.403l.514-.012.49.49.375.253.527.1.226-.226.576.302.05-.478-.25-.831-.15-.378v-.353l-.327-.327v-.453l.627.075.351.353.552-.151h.627l-.125-.655.35-.655.653-.15.476-.026.552.151v-.377l-.59-.265.214-.214.276-.302.476.025.376-.378-.175-.1-.376-.378-.427-.227v-.554l-.175-.15-.251.654-.301-.201v-.53l.552-.503-.075-.352-.527-.328.326-.327h.476l.703-.353.2-.579.928-.352.727-.327s.1.1.1.251-.476.328-.476.328l-.175.68.426-.202.376-.378.477.151-.126.983.426-.403v-.479l-.15-.806.1-.352.226-.63.527-.251.752-.328.451.328s-.213.29-.376.453c-.163.163.176.277.176.277h.551l.352-.403s.4.428.476.503c.075.076-.075-.579-.075-.579l.677-.377.476.252.527-.026.477-.478.501-.63v-.73l.627-.931.527-.53.476-.578.828-.126.69-.038.338.34.702.705.627-.277.451-.365h.49l-.239-.24v-.352l.477-.478v-.831l.225-.428h.377l.326-.328v-.503l.627-.453.15-.605-.25-.252.1-.302-.351-.503.275-.504.264-.264.476.478-.363.365.376.378h.576l.402-.151.552-.252.501-.126.125-.403-.15-.403-.276-.05-.853-.378-.626.101-.15-.352h-.503v-.277l.126-.479.451-.226.05-.53.402-.226h.35l-.15-.428.15-.453.427-.63z"/><path d="M130.25 59.087l-.25.24v.629l.425-.152.225.196.25-.217.1-.435-.275-.348zm6.053-2.45l-.173.043-.13-.361V56l.563.149.282.127.151.34.303.298.542.106.13.34.606.382h.325l.26.361.216.574.336.329.64.648.41.106.564.213.541.467.737.404.476.403.628.319.541.319.347.276.606.234-.086.276-.216.212-.412.128h-.325l.087.446-.087.318v.255l.368.553s.347.382.282.446c-.065.063.022.658.022.658l.281.276.433.426.369.233h.563l.324.319h.369l.195.403.476.022.292-.287.51.287.303.382s.108.255 0 .255c-.109 0-.693-.276-.693-.276l-.25.244h-.552l-.173.436.108.424.347.34.26.553-.347.276-.281-.34-.368-.361-.65-.595V68.3l-.433-.424-.412-.404-.281-.361-.347-.659-.433-.404-.455-.254-.433-.128-.368-.765-.802-1.083-.65-.637-.54-.531-.478-.638-.303-.488-.823-.361-.65-.277-.39-.042-.52-.701v-.319l-.562-.552-.303-.553-.607-.19.152-.426v-.318l.498.148.086-.425-.292-.286v-.16l-.287-.281-.417-.144zm18.48 11.427l.087.447.043.425.174.064v-.34l.13-.277V68zm1.076-.238v.196l.282.152v-.327zm-.734-1.941l.5.115.167-.368-.25-.735.458-.253-.083-.53-.709-.114-.208.598.271.149-.23.448zm.853-2.125l-.108.11.087.37.173-.262zm.827-1.84l.108-.688-.152-.424.087-.45.293-.358.076.49-.065.504.087.582-.152.424zm-12.751-32.766v.483l-.054.44.324.176.216.22.027.395L145 31l-.108-.396-.19-.307.19-.506v-.615l-.514-.176zm8.346 2.639l-.4.11.2.325h1.371l.429-.326-.543-.13-.543.174zM154.33 48l-.128.348-.202.183.234.213.138.26-.042.349-.022.444.224.203.245-.126v-.463l.223-.203-.18-.396-.299-.271.021-.348zm.486 2.782v.327l.216.109.152-.196zm2.032 6.242V58h.304l-.087-.415V57zM154.5 29.859l-.5.195.27.153.365-.207.365-.207zm-28.992-25.78L125.251 4l-.224.193-.492.21-.401.33.037.565-.171.14.086.457.32.386.332.631.513.088.348-.285.262-.39-.289-.255.428-.509-.075-.552V4.35zM1 39.222l.389.077.333-.084L1.85 39l.302.042.282.246.011.337.23.063.048.263.357.056.08-.25-.195-.17.167-.146.107.094.341.25v.375l-.047.326.198.285.199.118.071.423-.175.32-.833.368-1.262-1.313z"/></g></g></svg>